# Blender v2.92.0 OBJ File: 'squarerect.blend'
# www.blender.org
mtllib coolrect.mtl
o Cube_Cube.001
v -0.031230 -0.245007 0.490014
v -0.031230 0.245007 0.490014
v -0.031230 -0.245007 -0.490014
v -0.031230 0.245007 -0.490014
v 0.023418 -0.243411 0.486822
v 0.023418 0.243411 0.486822
v 0.023418 -0.243411 -0.486822
v 0.023418 0.243411 -0.486822
v 0.023418 1.000000 -2.000000
v 0.023418 -1.000000 -2.000000
v 0.023418 -1.000000 2.000000
v 0.023418 1.000000 2.000000
v 0.023418 0.906942 -1.813885
v 0.023418 -0.906942 -1.813885
v 0.023418 -0.906942 1.813885
v 0.023418 0.906942 1.813885
v 0.023418 0.577157 -1.154313
v 0.023418 -0.577157 -1.154313
v 0.023418 -0.577157 1.154313
v 0.023418 0.577157 1.154313
v 0.023418 0.478381 -0.956763
v 0.023418 -0.478381 -0.956763
v 0.023418 -0.478381 0.956763
v 0.023418 0.478381 0.956763
v -0.031230 -0.884831 -1.769663
v -0.031230 -0.884831 1.769663
v -0.031230 0.884831 1.769663
v -0.031230 0.884831 -1.769663
v -0.031230 -0.574818 -1.149635
v -0.031230 -0.574818 1.149635
v -0.031230 0.574818 1.149635
v -0.031230 0.574818 -1.149635
v -0.031230 -0.487763 -0.975526
v -0.031230 -0.487763 0.975526
v -0.031230 0.487763 0.975526
v -0.031230 0.487763 -0.975526
v -0.031230 -0.884831 -1.769663
v -0.031230 -0.884831 1.769663
v -0.031230 0.884831 1.769663
v -0.031230 0.884831 -1.769663
v -0.031230 -0.574818 -1.149635
v -0.031230 -0.574818 1.149635
v -0.031230 0.574818 1.149635
v -0.031230 0.574818 -1.149635
v 0.052546 0.243411 -0.486822
v 0.086563 0.175376 -0.350753
v 0.065564 0.238232 -0.476465
v 0.076600 0.223484 -0.446969
v 0.083974 0.201412 -0.402824
v 0.086563 -0.175376 -0.350753
v 0.052546 -0.243411 -0.486822
v 0.083974 -0.201412 -0.402824
v 0.076600 -0.223484 -0.446969
v 0.065564 -0.238232 -0.476465
v 0.086563 -0.175376 0.350753
v 0.052546 -0.243411 0.486822
v 0.083974 -0.201412 0.402824
v 0.076600 -0.223484 0.446969
v 0.065564 -0.238232 0.476465
v 0.052546 0.243411 0.486822
v 0.086563 0.175376 0.350753
v 0.065564 0.238232 0.476465
v 0.076600 0.223484 0.446969
v 0.083974 0.201412 0.402824
v 0.053080 0.577157 -1.154313
v 0.092569 0.498179 -0.996358
v 0.068192 0.571145 -1.142290
v 0.081003 0.554025 -1.108049
v 0.089563 0.528402 -1.056805
v 0.092569 -0.498179 -0.996358
v 0.053080 -0.577157 -1.154313
v 0.089563 -0.528402 -1.056805
v 0.081003 -0.554025 -1.108049
v 0.068192 -0.571145 -1.142290
v 0.092569 -0.498179 0.996358
v 0.053080 -0.577157 1.154313
v 0.089563 -0.528402 1.056805
v 0.081003 -0.554025 1.108049
v 0.068192 -0.571145 1.142290
v 0.053080 0.577157 1.154313
v 0.092569 0.498179 0.996358
v 0.068192 0.571145 1.142290
v 0.081003 0.554025 1.108049
v 0.089563 0.528402 1.056805
v 0.032534 1.000000 -2.000000
v 0.072643 0.919781 -1.839561
v 0.047883 0.993894 -1.987787
v 0.060895 0.976504 -1.953009
v 0.069590 0.950479 -1.900959
v 0.072643 -0.919781 -1.839561
v 0.032534 -1.000000 -2.000000
v 0.069590 -0.950479 -1.900959
v 0.060895 -0.976504 -1.953009
v 0.047883 -0.993894 -1.987787
v 0.072643 -0.919781 1.839561
v 0.032534 -1.000000 2.000000
v 0.069590 -0.950479 1.900959
v 0.060895 -0.976504 1.953009
v 0.047883 -0.993894 1.987787
v 0.032534 1.000000 2.000000
v 0.072643 0.919781 1.839561
v 0.047883 0.993894 1.987787
v 0.060895 0.976504 1.953009
v 0.069590 0.950479 1.900959
v -0.031230 -0.937286 -1.874572
v 0.000127 -1.000000 -2.000000
v -0.028843 -0.961286 -1.922571
v -0.022046 -0.981632 -1.963263
v -0.011873 -0.995226 -1.990452
v 0.000127 -1.000000 2.000000
v -0.031230 -0.937286 1.874572
v -0.011873 -0.995226 1.990452
v -0.022046 -0.981632 1.963263
v -0.028843 -0.961286 1.922571
v 0.000127 1.000000 2.000000
v -0.031230 0.937286 1.874572
v -0.011873 0.995226 1.990452
v -0.022046 0.981632 1.963263
v -0.028843 0.961286 1.922571
v 0.000127 1.000000 -2.000000
v -0.031230 0.937286 -1.874572
v -0.011873 0.995226 -1.990452
v -0.022046 0.981632 -1.963263
v -0.028843 0.961286 -1.922571
v -0.052485 -0.847412 -1.694823
v -0.033775 -0.884831 -1.769663
v -0.051061 -0.861732 -1.723463
v -0.047005 -0.873871 -1.747743
v -0.040935 -0.881983 -1.763966
v -0.033775 -0.884831 1.769663
v -0.052485 -0.847412 1.694823
v -0.040935 -0.881983 1.763966
v -0.047005 -0.873871 1.747743
v -0.051061 -0.861732 1.723463
v -0.033775 0.884831 1.769663
v -0.052485 0.847412 1.694823
v -0.040935 0.881983 1.763966
v -0.047005 0.873871 1.747743
v -0.051061 0.861732 1.723463
v -0.033775 0.884831 -1.769663
v -0.052485 0.847412 -1.694823
v -0.040935 0.881983 -1.763966
v -0.047005 0.873871 -1.747743
v -0.051061 0.861732 -1.723463
v -0.058313 -0.437977 -0.875954
v -0.033420 -0.487763 -0.975526
v -0.056418 -0.457029 -0.914058
v -0.051022 -0.473181 -0.946362
v -0.042946 -0.483973 -0.967946
v -0.033420 -0.487763 0.975526
v -0.058313 -0.437977 0.875954
v -0.042946 -0.483973 0.967946
v -0.051022 -0.473181 0.946362
v -0.056418 -0.457029 0.914058
v -0.033420 0.487763 0.975526
v -0.058313 0.437977 0.875954
v -0.042946 0.483973 0.967946
v -0.051022 0.473181 0.946362
v -0.056418 0.457029 0.914058
v -0.033420 0.487763 -0.975526
v -0.058313 0.437977 -0.875954
v -0.042946 0.483973 -0.967946
v -0.051022 0.473181 -0.946362
v -0.056418 0.457029 -0.914058
v -0.032592 -0.245007 -0.490014
v -0.058313 -0.296448 -0.592897
v -0.042435 -0.248923 -0.497845
v -0.050779 -0.260074 -0.520147
v -0.056355 -0.276763 -0.553525
v -0.058313 -0.296448 0.592897
v -0.032592 -0.245007 0.490014
v -0.056355 -0.276763 0.553525
v -0.050779 -0.260074 0.520147
v -0.042435 -0.248923 0.497845
v -0.058313 0.296448 0.592897
v -0.032592 0.245007 0.490014
v -0.056355 0.276763 0.553525
v -0.050779 0.260074 0.520147
v -0.042435 0.248923 0.497845
v -0.058313 0.296448 -0.592897
v -0.032592 0.245007 -0.490014
v -0.056355 0.276763 -0.553525
v -0.050779 0.260074 -0.520147
v -0.042435 0.248923 -0.497845
v -0.019874 -0.574818 -1.149635
v -0.052485 -0.640039 -1.280079
v -0.032354 -0.579782 -1.159564
v -0.042934 -0.593921 -1.187841
v -0.050003 -0.615080 -1.230160
v -0.052485 -0.640039 1.280079
v -0.019874 -0.574818 1.149635
v -0.050003 -0.615080 1.230160
v -0.042934 -0.593921 1.187841
v -0.032354 -0.579782 1.159564
v -0.052485 0.640039 1.280079
v -0.019874 0.574818 1.149635
v -0.050003 0.615080 1.230160
v -0.042934 0.593921 1.187841
v -0.032354 0.579782 1.159564
v -0.052485 0.640039 -1.280079
v -0.019874 0.574818 -1.149635
v -0.050003 0.615080 -1.230160
v -0.042934 0.593921 -1.187841
v -0.032354 0.579782 -1.159564
v 0.092569 0.497034 -0.994069
v 0.083243 0.478381 -0.956763
v 0.091320 0.487708 -0.975416
v 0.087906 0.480880 -0.961761
v 0.083243 -0.478381 -0.956763
v 0.092569 -0.497034 -0.994069
v 0.087906 -0.480880 -0.961761
v 0.091320 -0.487708 -0.975416
v 0.083243 -0.478381 0.956763
v 0.092569 -0.497034 0.994069
v 0.087906 -0.480880 0.961761
v 0.091320 -0.487708 0.975416
v 0.092569 0.497034 0.994069
v 0.083243 0.478381 0.956763
v 0.091320 0.487708 0.975416
v 0.087906 0.480880 0.961761
v 0.072643 0.920593 -1.841186
v 0.065818 0.906942 -1.813885
v 0.071729 0.913768 -1.827535
v 0.069231 0.908771 -1.817542
v 0.065818 -0.906942 -1.813885
v 0.072643 -0.920593 -1.841186
v 0.069231 -0.908771 -1.817542
v 0.071729 -0.913768 -1.827535
v 0.065818 -0.906942 1.813885
v 0.072643 -0.920593 1.841186
v 0.069231 -0.908771 1.817542
v 0.071729 -0.913768 1.827535
v 0.072643 0.920593 1.841186
v 0.065818 0.906942 1.813885
v 0.071729 0.913768 1.827535
v 0.069231 0.908771 1.817542
vt 0.469374 0.094374
vt 0.530626 0.094374
vt 0.530626 0.155626
vt 0.469374 0.155626
vt 0.268449 0.500000
vt 0.375000 0.500000
vt 0.375000 0.750000
vt 0.268449 0.750000
vt 0.469574 0.655426
vt 0.469574 0.594573
vt 0.469574 0.594573
vt 0.469574 0.655426
vt 0.610604 0.235604
vt 0.610604 0.014396
vt 0.617161 0.007839
vt 0.617161 0.242161
vt 0.389396 0.235604
vt 0.382839 0.242161
vt 0.375000 0.500000
vt 0.375000 0.750000
vt 0.615074 0.509926
vt 0.384926 0.509926
vt 0.385027 0.510027
vt 0.614973 0.510027
vt 0.615074 0.740074
vt 0.614973 0.739973
vt 0.384926 0.740074
vt 0.385027 0.739973
vt 0.572145 0.552855
vt 0.427855 0.552855
vt 0.386632 0.511632
vt 0.613368 0.511632
vt 0.427855 0.697145
vt 0.386632 0.738368
vt 0.572145 0.697145
vt 0.613368 0.738368
vt 0.440202 0.565202
vt 0.440202 0.684798
vt 0.440202 0.684798
vt 0.440202 0.565202
vt 0.427855 0.697145
vt 0.572145 0.697145
vt 0.437871 0.562871
vt 0.437871 0.687129
vt 0.437728 0.687272
vt 0.437728 0.562728
vt 0.530426 0.594574
vt 0.559798 0.565202
vt 0.530426 0.655426
vt 0.559798 0.684798
vt 0.572145 0.552855
vt 0.427855 0.552855
vt 0.559798 0.565202
vt 0.559798 0.684798
vt 0.562129 0.687129
vt 0.562129 0.562871
vt 0.562272 0.562728
vt 0.562272 0.687272
vt 0.530426 0.655426
vt 0.530426 0.594574
vt 0.478078 0.603078
vt 0.521922 0.603078
vt 0.521922 0.646922
vt 0.478078 0.646922
vt 0.625000 0.500000
vt 0.625000 0.750000
vt 0.625000 0.750000
vt 0.625000 0.500000
vt 0.386632 0.738368
vt 0.386632 0.511632
vt 0.613368 0.511632
vt 0.613368 0.738368
vt 0.375000 0.393449
vt 0.625000 0.393449
vt 0.625000 0.856551
vt 0.375000 0.856551
vt 0.731551 0.500000
vt 0.731551 0.750000
vt 0.389396 0.014396
vt 0.382839 0.007839
vt 0.428148 0.196852
vt 0.571852 0.196852
vt 0.571852 0.196852
vt 0.428148 0.196852
vt 0.610604 0.235604
vt 0.610604 0.014396
vt 0.428148 0.053148
vt 0.428148 0.053148
vt 0.571852 0.053148
vt 0.571852 0.053148
vt 0.439030 0.064030
vt 0.439030 0.185970
vt 0.560970 0.064030
vt 0.560970 0.185970
vt 0.462944 0.162056
vt 0.537056 0.162056
vt 0.554747 0.179747
vt 0.445253 0.179747
vt 0.537056 0.087944
vt 0.554747 0.070253
vt 0.530626 0.155626
vt 0.469374 0.155626
vt 0.419995 0.044995
vt 0.419995 0.205005
vt 0.394074 0.230926
vt 0.394074 0.019074
vt 0.580005 0.205005
vt 0.580005 0.044995
vt 0.605926 0.019074
vt 0.605926 0.230926
vt 0.571852 0.196852
vt 0.428148 0.196852
vt 0.389396 0.014396
vt 0.389396 0.235604
vt 0.389396 0.235604
vt 0.610604 0.235604
vt 0.610604 0.014396
vt 0.389396 0.014396
vt 0.428148 0.053148
vt 0.571852 0.053148
vt 0.439030 0.185970
vt 0.560970 0.185970
vt 0.560970 0.064030
vt 0.439030 0.064030
vt 0.530626 0.094374
vt 0.469374 0.094374
vt 0.462944 0.087944
vt 0.445253 0.070253
vt 0.474823 0.599823
vt 0.525177 0.599823
vt 0.470819 0.595819
vt 0.529181 0.595819
vt 0.469897 0.594897
vt 0.530103 0.594897
vt 0.469897 0.655103
vt 0.470819 0.654181
vt 0.474823 0.650177
vt 0.530103 0.655103
vt 0.529181 0.654181
vt 0.525177 0.650176
vt 0.433950 0.558950
vt 0.566050 0.558950
vt 0.429301 0.554301
vt 0.570699 0.554301
vt 0.428231 0.553231
vt 0.571769 0.553231
vt 0.428231 0.696769
vt 0.429301 0.695699
vt 0.433950 0.691050
vt 0.571769 0.696769
vt 0.570699 0.695699
vt 0.566050 0.691050
vt 0.381190 0.506190
vt 0.618810 0.506190
vt 0.376468 0.501468
vt 0.623532 0.501468
vt 0.375382 0.500382
vt 0.624618 0.500382
vt 0.375382 0.749618
vt 0.376468 0.748532
vt 0.381190 0.743810
vt 0.624618 0.749618
vt 0.623532 0.748532
vt 0.618810 0.743810
vt 0.213553 0.749403
vt 0.213553 0.500597
vt 0.125000 0.747704
vt 0.125000 0.502296
vt 0.375000 0.247704
vt 0.375000 0.002296
vt 0.379839 0.004839
vt 0.379839 0.245161
vt 0.624403 0.911447
vt 0.375597 0.911447
vt 0.622704 1.000000
vt 0.377296 1.000000
vt 0.377296 0.000000
vt 0.622704 0.000000
vt 0.620161 0.004839
vt 0.786447 0.500597
vt 0.786447 0.749403
vt 0.875000 0.502296
vt 0.875000 0.747704
vt 0.625000 0.002296
vt 0.625000 0.247704
vt 0.620161 0.245161
vt 0.375597 0.338553
vt 0.624403 0.338553
vt 0.377296 0.250000
vt 0.622704 0.250000
vt 0.389574 0.014574
vt 0.389574 0.235426
vt 0.390081 0.015081
vt 0.390081 0.234919
vt 0.392284 0.017284
vt 0.392284 0.232716
vt 0.610426 0.014574
vt 0.609919 0.015081
vt 0.607716 0.017284
vt 0.610426 0.235426
vt 0.609919 0.234919
vt 0.607716 0.232716
vt 0.439267 0.064267
vt 0.439267 0.185734
vt 0.439941 0.064941
vt 0.439941 0.185059
vt 0.442871 0.067871
vt 0.442871 0.182129
vt 0.560734 0.064266
vt 0.560059 0.064941
vt 0.557129 0.067871
vt 0.560734 0.185734
vt 0.560059 0.185059
vt 0.557129 0.182129
vt 0.465405 0.090405
vt 0.465405 0.159595
vt 0.469374 0.094374
vt 0.469374 0.155626
vt 0.469129 0.094129
vt 0.469129 0.155871
vt 0.534595 0.090405
vt 0.530626 0.094374
vt 0.530871 0.094129
vt 0.534595 0.159595
vt 0.530626 0.155626
vt 0.530871 0.155871
vt 0.423115 0.048115
vt 0.423115 0.201885
vt 0.428148 0.053148
vt 0.428148 0.196852
vt 0.427838 0.052838
vt 0.427838 0.197162
vt 0.576885 0.048115
vt 0.571852 0.053148
vt 0.572162 0.052838
vt 0.576885 0.201885
vt 0.571852 0.196852
vt 0.572162 0.197162
vt 0.440046 0.565046
vt 0.559954 0.565046
vt 0.439036 0.564036
vt 0.560963 0.564036
vt 0.439036 0.685963
vt 0.440046 0.684954
vt 0.560963 0.685963
vt 0.559954 0.684954
vt 0.386518 0.511518
vt 0.613482 0.511518
vt 0.385779 0.510779
vt 0.614221 0.510779
vt 0.385779 0.739221
vt 0.386518 0.738482
vt 0.614221 0.739221
vt 0.613482 0.738482
vn -1.0000 0.0000 0.0000
vn 0.0000 -1.0000 0.0000
vn 1.0000 0.0000 0.0000
vn 0.0000 1.0000 0.0000
vn 0.0000 0.0000 1.0000
vn 0.0000 0.0000 -1.0000
vn 0.9988 -0.0000 -0.0497
vn 0.9863 -0.0000 -0.1648
vn 0.9366 0.0000 -0.3504
vn 0.6226 0.0000 -0.7825
vn 0.3696 -0.9292 0.0000
vn 0.8007 -0.5991 0.0000
vn 0.9485 -0.3169 0.0000
vn 0.9951 -0.0990 0.0000
vn 0.3696 0.9292 0.0000
vn 0.8007 0.5991 0.0000
vn 0.9485 0.3169 -0.0000
vn 0.9951 0.0990 -0.0000
vn 0.6226 0.0000 0.7825
vn 0.9366 0.0000 0.3504
vn 0.9863 0.0000 0.1648
vn 0.9988 0.0000 0.0497
vn -0.3696 -0.9292 0.0000
vn -0.8007 -0.5991 0.0000
vn -0.9485 -0.3169 0.0000
vn -0.9951 -0.0990 0.0000
vn -0.6226 0.0000 0.7825
vn -0.9366 0.0000 0.3504
vn -0.9863 0.0000 0.1648
vn -0.9988 0.0000 0.0497
vn -0.3696 0.9292 0.0000
vn -0.8007 0.5991 0.0000
vn -0.9485 0.3169 0.0000
vn -0.9951 0.0990 0.0000
vn -0.6226 0.0000 -0.7825
vn -0.9366 0.0000 -0.3504
vn -0.9863 0.0000 -0.1648
vn -0.9988 0.0000 -0.0497
vn 0.7312 0.0000 0.6822
vn 0.9701 0.0000 0.2425
vn 0.9978 0.0000 0.0668
vn 0.9911 0.1328 0.0000
vn 0.8944 0.4472 0.0000
vn 0.4723 0.8814 0.0000
vn 0.9911 -0.1328 0.0000
vn 0.8944 -0.4472 0.0000
vn 0.4723 -0.8814 0.0000
vn 0.9978 0.0000 -0.0668
vn 0.9701 0.0000 -0.2425
vn 0.7312 0.0000 -0.6822
usemtl None
s off
f 1/1/1 2/2/1 4/3/1 3/4/1
f 106/5/2 10/6/2 11/7/2 110/8/2
f 5/9/2 7/10/2 51/11/2 56/12/2
f 28/13/1 27/14/1 116/15/1 121/16/1
f 25/17/1 28/13/1 121/16/1 105/18/1
f 11/7/2 10/6/2 91/19/2 96/20/2
f 221/21/1 226/22/1 90/23/1 86/24/1
f 233/25/1 221/21/1 86/24/1 101/26/1
f 230/27/1 233/25/1 101/26/1 95/28/1
f 17/29/3 18/30/3 14/31/3 13/32/3
f 18/30/3 19/33/3 15/34/3 14/31/3
f 20/35/3 17/29/3 13/32/3 16/36/3
f 19/33/3 20/35/3 16/36/3 15/34/3
f 22/37/4 23/38/4 213/39/4 209/40/4
f 20/35/5 19/33/5 76/41/5 80/42/5
f 210/43/3 214/44/3 75/45/3 70/46/3
f 8/47/3 7/10/3 22/37/3 21/48/3
f 7/10/3 5/9/3 23/38/3 22/37/3
f 6/49/3 8/47/3 21/48/3 24/50/3
f 5/9/3 6/49/3 24/50/3 23/38/3
f 17/29/4 20/35/4 80/42/4 65/51/4
f 19/33/2 18/30/2 71/52/2 76/41/2
f 24/50/2 21/48/2 206/53/2 218/54/2
f 217/55/3 205/56/3 66/57/3 81/58/3
f 23/38/6 24/50/6 218/54/6 213/39/6
f 214/44/3 217/55/3 81/58/3 75/45/3
f 205/56/3 210/43/3 70/46/3 66/57/3
f 8/47/4 6/49/4 60/59/4 45/60/4
f 50/61/3 46/62/3 61/63/3 55/64/3
f 6/49/5 5/9/5 56/12/5 60/59/5
f 9/65/4 12/66/4 100/67/4 85/68/4
f 12/66/5 11/7/5 96/20/5 100/67/5
f 14/31/4 15/34/4 229/69/4 225/70/4
f 13/32/5 14/31/5 225/70/5 222/71/5
f 226/22/1 230/27/1 95/28/1 90/23/1
f 15/34/6 16/36/6 234/72/6 229/69/6
f 106/73/6 120/74/6 9/65/6 10/6/6
f 11/7/5 12/66/5 115/75/5 110/76/5
f 9/65/4 120/77/4 115/78/4 12/66/4
f 27/14/1 26/79/1 111/80/1 116/15/1
f 29/81/5 32/82/5 44/83/5 41/84/5
f 27/14/5 28/13/5 40/85/5 39/86/5
f 30/87/5 29/81/5 41/84/5 42/88/5
f 32/82/5 31/89/5 43/90/5 44/83/5
f 34/91/1 33/92/1 29/81/1 30/87/1
f 35/93/1 34/91/1 30/87/1 31/89/1
f 36/94/1 35/93/1 31/89/1 32/82/1
f 33/92/1 36/94/1 32/82/1 29/81/1
f 166/95/1 180/96/1 161/97/1 145/98/1
f 180/96/1 175/99/1 156/100/1 161/97/1
f 3/4/5 4/3/5 181/101/5 165/102/5
f 190/103/1 186/104/1 125/105/1 131/106/1
f 200/107/1 195/108/1 136/109/1 141/110/1
f 195/108/1 190/103/1 131/106/1 136/109/1
f 41/84/6 44/83/6 201/111/6 185/112/6
f 25/17/5 26/79/5 38/113/5 37/114/5
f 31/89/5 30/87/5 42/88/5 43/90/5
f 28/13/5 25/17/5 37/114/5 40/85/5
f 26/79/5 27/14/5 39/86/5 38/113/5
f 40/85/6 37/114/6 126/115/6 140/116/6
f 39/86/4 40/85/4 140/116/4 135/117/4
f 38/113/5 39/86/5 135/117/5 130/118/5
f 43/90/5 42/88/5 191/119/5 196/120/5
f 186/104/1 200/107/1 141/110/1 125/105/1
f 44/83/4 43/90/4 196/120/4 201/111/4
f 36/94/6 33/92/6 146/121/6 160/122/6
f 35/93/4 36/94/4 160/122/4 155/123/4
f 34/91/5 35/93/5 155/123/5 150/124/5
f 4/3/2 2/2/2 176/125/2 181/101/2
f 2/2/6 1/1/6 171/126/6 176/125/6
f 1/1/4 3/4/4 165/102/4 171/126/4
f 175/99/1 170/127/1 151/128/1 156/100/1
f 46/62/7 50/61/7 52/129/7 49/130/7
f 49/130/8 52/129/8 53/131/8 48/132/8
f 48/132/9 53/131/9 54/133/9 47/134/9
f 47/134/10 54/133/10 51/11/10 45/60/10
f 56/12/11 51/11/11 54/133/11 59/135/11
f 59/135/12 54/133/12 53/131/12 58/136/12
f 58/136/13 53/131/13 52/129/13 57/137/13
f 57/137/14 52/129/14 50/61/14 55/64/14
f 45/60/15 60/59/15 62/138/15 47/134/15
f 47/134/16 62/138/16 63/139/16 48/132/16
f 48/132/17 63/139/17 64/140/17 49/130/17
f 49/130/18 64/140/18 61/63/18 46/62/18
f 60/59/19 56/12/19 59/135/19 62/138/19
f 62/138/20 59/135/20 58/136/20 63/139/20
f 63/139/21 58/136/21 57/137/21 64/140/21
f 64/140/22 57/137/22 55/64/22 61/63/22
f 7/10/6 8/47/6 45/60/6 51/11/6
f 66/57/7 70/46/7 72/141/7 69/142/7
f 69/142/8 72/141/8 73/143/8 68/144/8
f 68/144/9 73/143/9 74/145/9 67/146/9
f 67/146/10 74/145/10 71/52/10 65/51/10
f 76/41/11 71/52/11 74/145/11 79/147/11
f 79/147/12 74/145/12 73/143/12 78/148/12
f 78/148/13 73/143/13 72/141/13 77/149/13
f 77/149/14 72/141/14 70/46/14 75/45/14
f 65/51/15 80/42/15 82/150/15 67/146/15
f 67/146/16 82/150/16 83/151/16 68/144/16
f 68/144/17 83/151/17 84/152/17 69/142/17
f 69/142/18 84/152/18 81/58/18 66/57/18
f 80/42/19 76/41/19 79/147/19 82/150/19
f 82/150/20 79/147/20 78/148/20 83/151/20
f 83/151/21 78/148/21 77/149/21 84/152/21
f 84/152/22 77/149/22 75/45/22 81/58/22
f 18/30/6 17/29/6 65/51/6 71/52/6
f 86/24/7 90/23/7 92/153/7 89/154/7
f 89/154/8 92/153/8 93/155/8 88/156/8
f 88/156/9 93/155/9 94/157/9 87/158/9
f 87/158/10 94/157/10 91/19/10 85/68/10
f 96/20/11 91/19/11 94/157/11 99/159/11
f 99/159/12 94/157/12 93/155/12 98/160/12
f 98/160/13 93/155/13 92/153/13 97/161/13
f 97/161/14 92/153/14 90/23/14 95/28/14
f 85/68/15 100/67/15 102/162/15 87/158/15
f 87/158/16 102/162/16 103/163/16 88/156/16
f 88/156/17 103/163/17 104/164/17 89/154/17
f 89/154/18 104/164/18 101/26/18 86/24/18
f 100/67/19 96/20/19 99/159/19 102/162/19
f 102/162/20 99/159/20 98/160/20 103/163/20
f 103/163/21 98/160/21 97/161/21 104/164/21
f 104/164/22 97/161/22 95/28/22 101/26/22
f 10/6/6 9/65/6 85/68/6 91/19/6
f 106/5/23 110/8/23 112/165/23 109/166/23
f 109/166/24 112/165/24 113/167/24 108/168/24
f 108/169/25 113/170/25 114/171/25 107/172/25
f 107/172/26 114/171/26 111/80/26 105/18/26
f 110/76/27 115/75/27 117/173/27 112/174/27
f 112/174/28 117/173/28 118/175/28 113/176/28
f 113/177/29 118/178/29 119/179/29 114/171/29
f 114/171/30 119/179/30 116/15/30 111/80/30
f 115/78/31 120/77/31 122/180/31 117/181/31
f 117/181/32 122/180/32 123/182/32 118/183/32
f 118/184/33 123/185/33 124/186/33 119/179/33
f 119/179/34 124/186/34 121/16/34 116/15/34
f 120/74/35 106/73/35 109/187/35 122/188/35
f 122/188/36 109/187/36 108/189/36 123/190/36
f 123/190/37 108/189/37 107/172/37 124/186/37
f 124/186/38 107/172/38 105/18/38 121/16/38
f 26/79/1 25/17/1 105/18/1 111/80/1
f 126/115/23 130/118/23 132/191/23 129/192/23
f 129/192/24 132/191/24 133/193/24 128/194/24
f 128/194/25 133/193/25 134/195/25 127/196/25
f 127/196/26 134/195/26 131/106/26 125/105/26
f 130/118/27 135/117/27 137/197/27 132/191/27
f 132/191/28 137/197/28 138/198/28 133/193/28
f 133/193/29 138/198/29 139/199/29 134/195/29
f 134/195/30 139/199/30 136/109/30 131/106/30
f 135/117/31 140/116/31 142/200/31 137/197/31
f 137/197/32 142/200/32 143/201/32 138/198/32
f 138/198/33 143/201/33 144/202/33 139/199/33
f 139/199/34 144/202/34 141/110/34 136/109/34
f 140/116/35 126/115/35 129/192/35 142/200/35
f 142/200/36 129/192/36 128/194/36 143/201/36
f 143/201/37 128/194/37 127/196/37 144/202/37
f 144/202/38 127/196/38 125/105/38 141/110/38
f 37/114/2 38/113/2 130/118/2 126/115/2
f 146/121/23 150/124/23 152/203/23 149/204/23
f 149/204/24 152/203/24 153/205/24 148/206/24
f 148/206/25 153/205/25 154/207/25 147/208/25
f 147/208/26 154/207/26 151/128/26 145/98/26
f 150/124/27 155/123/27 157/209/27 152/203/27
f 152/203/28 157/209/28 158/210/28 153/205/28
f 153/205/29 158/210/29 159/211/29 154/207/29
f 154/207/30 159/211/30 156/100/30 151/128/30
f 155/123/31 160/122/31 162/212/31 157/209/31
f 157/209/32 162/212/32 163/213/32 158/210/32
f 158/210/33 163/213/33 164/214/33 159/211/33
f 159/211/34 164/214/34 161/97/34 156/100/34
f 160/122/35 146/121/35 149/204/35 162/212/35
f 162/212/36 149/204/36 148/206/36 163/213/36
f 163/213/37 148/206/37 147/208/37 164/214/37
f 164/214/38 147/208/38 145/98/38 161/97/38
f 33/92/2 34/91/2 150/124/2 146/121/2
f 166/95/34 170/127/34 172/215/34 169/216/34
f 169/216/33 172/215/33 173/217/33 168/218/33
f 168/218/32 173/217/32 174/219/32 167/220/32
f 167/220/31 174/219/31 171/126/31 165/102/31
f 170/127/38 175/99/38 177/221/38 172/215/38
f 172/215/37 177/221/37 178/222/37 173/217/37
f 173/217/36 178/222/36 179/223/36 174/219/36
f 174/219/35 179/223/35 176/125/35 171/126/35
f 175/99/26 180/96/26 182/224/26 177/221/26
f 177/221/25 182/224/25 183/225/25 178/222/25
f 178/222/24 183/225/24 184/226/24 179/223/24
f 179/223/23 184/226/23 181/101/23 176/125/23
f 180/96/30 166/95/30 169/216/30 182/224/30
f 182/224/29 169/216/29 168/218/29 183/225/29
f 183/225/28 168/218/28 167/220/28 184/226/28
f 184/226/27 167/220/27 165/102/27 181/101/27
f 170/127/1 166/95/1 145/98/1 151/128/1
f 186/104/34 190/103/34 192/227/34 189/228/34
f 189/228/33 192/227/33 193/229/33 188/230/33
f 188/230/32 193/229/32 194/231/32 187/232/32
f 187/232/31 194/231/31 191/119/31 185/112/31
f 190/103/38 195/108/38 197/233/38 192/227/38
f 192/227/37 197/233/37 198/234/37 193/229/37
f 193/229/36 198/234/36 199/235/36 194/231/36
f 194/231/35 199/235/35 196/120/35 191/119/35
f 195/108/26 200/107/26 202/236/26 197/233/26
f 197/233/25 202/236/25 203/237/25 198/234/25
f 198/234/24 203/237/24 204/238/24 199/235/24
f 199/235/23 204/238/23 201/111/23 196/120/23
f 200/107/30 186/104/30 189/228/30 202/236/30
f 202/236/29 189/228/29 188/230/29 203/237/29
f 203/237/28 188/230/28 187/232/28 204/238/28
f 204/238/27 187/232/27 185/112/27 201/111/27
f 42/88/2 41/84/2 185/112/2 191/119/2
f 206/53/39 209/40/39 211/239/39 208/240/39
f 208/240/40 211/239/40 212/241/40 207/242/40
f 207/242/41 212/241/41 210/43/41 205/56/41
f 214/44/42 210/43/42 212/241/42 216/243/42
f 216/243/43 212/241/43 211/239/43 215/244/43
f 215/244/44 211/239/44 209/40/44 213/39/44
f 205/56/45 217/55/45 219/245/45 207/242/45
f 207/242/46 219/245/46 220/246/46 208/240/46
f 208/240/47 220/246/47 218/54/47 206/53/47
f 217/55/48 214/44/48 216/243/48 219/245/48
f 219/245/49 216/243/49 215/244/49 220/246/49
f 220/246/50 215/244/50 213/39/50 218/54/50
f 21/48/5 22/37/5 209/40/5 206/53/5
f 222/71/39 225/70/39 227/247/39 224/248/39
f 224/248/40 227/247/40 228/249/40 223/250/40
f 223/250/41 228/249/41 226/22/41 221/21/41
f 230/27/42 226/22/42 228/249/42 232/251/42
f 232/251/43 228/249/43 227/247/43 231/252/43
f 231/252/44 227/247/44 225/70/44 229/69/44
f 221/21/45 233/25/45 235/253/45 223/250/45
f 223/250/46 235/253/46 236/254/46 224/248/46
f 224/248/47 236/254/47 234/72/47 222/71/47
f 233/25/48 230/27/48 232/251/48 235/253/48
f 235/253/49 232/251/49 231/252/49 236/254/49
f 236/254/50 231/252/50 229/69/50 234/72/50
f 16/36/2 13/32/2 222/71/2 234/72/2
