# Blender v2.92.0 OBJ File: 'pyramid.blend'
# www.blender.org
mtllib pyrwmap.mtl
o Cube_Cube.001
v 1.000000 -1.000000 -1.000000
v 0.018549 1.000000 -0.018549
v -0.978480 -1.000000 0.978480
v -0.967004 -0.980681 0.990520
v -0.990520 -0.980681 0.967004
v -0.977548 -0.999356 0.991278
v -0.991278 -0.999356 0.977548
v -0.990487 -0.998521 0.990487
v -0.980185 -0.980681 0.989186
v -0.973155 -0.991961 0.995887
v -0.986721 -0.992180 0.994439
v -0.995887 -0.991961 0.973155
v -0.989186 -0.980681 0.980185
v -0.994439 -0.992180 0.986721
v -0.004513 0.980681 0.028029
v 0.002971 1.000000 -0.002971
v -0.028029 0.980681 0.004513
v -0.002230 0.991382 0.021570
v -0.015776 0.984590 0.024732
v -0.013488 0.993877 0.019747
v -0.009481 0.998916 -0.000688
v 0.000688 0.998916 0.009481
v -0.011338 0.998617 0.011338
v -0.024732 0.984590 0.015776
v -0.021570 0.991382 0.002230
v -0.019747 0.993877 0.013488
v -0.978480 -1.000000 -0.978480
v -0.990520 -0.980681 -0.967004
v -0.967004 -0.980681 -0.990520
v -0.991278 -0.999356 -0.977548
v -0.977548 -0.999356 -0.991278
v -0.990487 -0.998521 -0.990487
v -0.989186 -0.980681 -0.980185
v -0.995887 -0.991961 -0.973155
v -0.994439 -0.992180 -0.986721
v -0.973155 -0.991961 -0.995887
v -0.980185 -0.980681 -0.989186
v -0.986721 -0.992180 -0.994439
v 0.002971 1.000000 0.002971
v -0.004513 0.980681 -0.028029
v -0.028029 0.980681 -0.004513
v 0.000688 0.998916 -0.009481
v -0.009481 0.998916 0.000688
v -0.011338 0.998617 -0.011338
v -0.015776 0.984590 -0.024732
v -0.002230 0.991382 -0.021570
v -0.013488 0.993877 -0.019747
v -0.021570 0.991382 -0.002230
v -0.024732 0.984590 -0.015776
v -0.019747 0.993877 -0.013488
v 0.978480 -1.000000 0.978480
v 0.990520 -0.980681 0.967004
v 0.967004 -0.980681 0.990520
v 0.991278 -0.999356 0.977548
v 0.977548 -0.999356 0.991278
v 0.990487 -0.998521 0.990487
v 0.989186 -0.980681 0.980185
v 0.995887 -0.991961 0.973155
v 0.994439 -0.992180 0.986721
v 0.973155 -0.991961 0.995887
v 0.980185 -0.980681 0.989186
v 0.986721 -0.992180 0.994439
v -0.002971 1.000000 -0.002971
v 0.004513 0.980681 0.028029
v 0.028029 0.980681 0.004513
v -0.000688 0.998916 0.009481
v 0.009481 0.998916 -0.000688
v 0.011338 0.998617 0.011338
v 0.015776 0.984590 0.024732
v 0.002230 0.991382 0.021570
v 0.013488 0.993877 0.019747
v 0.021570 0.991382 0.002230
v 0.024732 0.984590 0.015776
v 0.019747 0.993877 0.013488
v 0.978480 -1.000000 -0.978480
v 1.000000 -0.990340 -0.990520
v 0.990703 -0.999712 -0.990421
v 0.999358 -0.995827 -0.995263
v 0.018549 0.990340 -0.028029
v -0.002971 1.000000 0.002971
v 0.017907 0.995827 -0.022003
v 0.009252 0.999712 -0.009535
vt 0.000000 0.000000
vt 0.000000 0.000000
vt 0.000000 0.000000
vt 0.000000 0.000000
vt 0.008249 0.997630
vt 0.248872 0.757007
vt 0.251128 0.757007
vt 0.491751 0.997630
vt 0.000955 0.502370
vt 0.244408 0.742993
vt 0.242993 0.751128
vt 0.002370 0.991751
vt 0.000000 -0.000003
vt 0.000000 0.500000
vt 0.245363 0.745363
vt 0.250743 0.750743
vt 0.249257 0.750743
vt 0.249257 0.749257
vt 0.250743 0.749257
vt 0.497630 0.991751
vt 0.257007 0.751128
vt 0.257007 0.748872
vt 0.497630 0.508249
vt 0.491751 0.502370
vt 0.251128 0.742993
vt 0.245363 0.743948
vt -0.000000 0.501415
vt 0.005380 0.494620
vt 0.005613 0.497820
vt 0.002378 0.497622
vt 0.002180 0.494387
vt 0.494387 0.999513
vt 0.493289 1.000000
vt 0.496680 1.000000
vt 0.497622 0.999392
vt 0.495046 0.997565
vt 0.496680 0.998957
vt 0.493289 0.999005
vt 0.497156 0.997156
vt 0.498587 0.998587
vt 0.499005 0.993289
vt 0.498957 0.996680
vt 0.497565 0.995046
vt 0.500000 0.994387
vt 0.500000 0.997622
vt 0.499392 0.997622
vt 0.498587 0.998587
vt 0.250558 0.755636
vt 0.253372 0.755301
vt 0.253944 0.756461
vt 0.249828 0.754637
vt 0.252834 0.754637
vt 0.252370 0.749828
vt 0.252835 0.752835
vt 0.249828 0.752370
vt 0.254637 0.750558
vt 0.254637 0.753372
vt 0.256461 0.753944
vt 0.255301 0.753372
vt 0.255636 0.750557
vt 0.256052 0.756052
vt 0.254987 0.754987
vt 0.005380 0.005380
vt 0.002180 0.005613
vt 0.002378 0.002378
vt 0.005613 0.002180
vt 0.499513 0.505613
vt 0.500000 0.506711
vt 0.500000 0.503320
vt 0.499392 0.502378
vt 0.497565 0.504954
vt 0.498957 0.503320
vt 0.499006 0.506711
vt 0.497156 0.502844
vt 0.498587 0.501413
vt 0.493289 0.500994
vt 0.496680 0.501043
vt 0.495046 0.502435
vt 0.494387 0.500000
vt 0.497622 0.500000
vt 0.497622 0.500608
vt 0.498587 0.501413
vt 0.249828 0.747630
vt 0.252835 0.747166
vt 0.252370 0.750172
vt 0.250558 0.745363
vt 0.253372 0.745363
vt 0.253944 0.743539
vt 0.253372 0.744699
vt 0.250558 0.744364
vt 0.256052 0.743948
vt 0.254987 0.745013
vt 0.255636 0.749442
vt 0.255301 0.746628
vt 0.256461 0.746056
vt 0.254637 0.750172
vt 0.254637 0.747165
vt 0.494620 0.494620
vt 0.497819 0.494387
vt 0.497622 0.497622
vt 0.494387 0.497820
vt 0.000487 0.994387
vt 0.000000 0.993289
vt 0.000000 0.996680
vt 0.000608 0.997622
vt 0.002435 0.995046
vt 0.001043 0.996680
vt 0.000994 0.993289
vt 0.002844 0.997156
vt 0.001413 0.998587
vt 0.006711 0.999005
vt 0.003320 0.998957
vt 0.004954 0.997565
vt 0.005613 1.000000
vt 0.002378 1.000000
vt 0.002378 0.999392
vt 0.001413 0.998587
vt 0.250172 0.752370
vt 0.247165 0.752835
vt 0.247630 0.749828
vt 0.249442 0.754637
vt 0.246628 0.754637
vt 0.246056 0.756461
vt 0.246628 0.755301
vt 0.249442 0.755636
vt 0.243948 0.756052
vt 0.245013 0.754987
vt 0.244364 0.750558
vt 0.244699 0.753372
vt 0.243539 0.753944
vt 0.245363 0.749828
vt 0.245363 0.752834
vt 0.500000 0.505613
vt 0.494620 0.005380
vt 0.497676 0.002395
vt 0.002324 0.500000
vt 0.000160 0.500642
vt 0.247687 0.747616
vt 0.245523 0.744783
vt 0.000000 0.994387
vt 0.000000 0.502395
vt 0.000444 0.501184
vt 0.245363 0.750558
vt 0.245363 0.745363
vt 0.494387 1.000000
vn 0.9016 0.4197 -0.1045
vn 0.0455 0.4522 0.8907
vn 0.0337 0.4801 0.8765
vn -0.0337 0.4801 0.8765
vn -0.0455 0.4522 0.8907
vn 0.9440 0.3300 0.0015
vn 0.8969 0.4423 0.0000
vn 0.8827 0.4682 0.0402
vn 0.9138 0.4034 0.0464
vn 1.0000 0.0000 0.0000
vn -0.0358 0.9992 0.0196
vn -0.1119 0.9912 -0.0705
vn 0.0000 1.0000 0.0000
vn 0.0668 0.9929 0.0982
vn -0.8907 0.4522 0.0455
vn -0.8765 0.4801 0.0337
vn -0.8765 0.4801 -0.0337
vn -0.8907 0.4522 -0.0455
vn -0.0449 0.4799 -0.8762
vn -0.0687 0.4932 -0.8672
vn -0.1087 0.5340 -0.8384
vn 0.0011 0.4827 -0.8758
vn -0.0288 -0.9992 0.0288
vn -0.0474 -0.8512 0.5228
vn -0.5222 -0.6742 0.5222
vn -0.5228 -0.8512 0.0474
vn -0.0515 -0.0337 0.9981
vn -0.3852 0.0908 0.9184
vn -0.3451 0.5454 0.7639
vn -0.7639 0.5454 0.3451
vn -0.9184 0.0908 0.3852
vn -0.9981 -0.0337 0.0515
vn 0.0059 0.6855 0.7280
vn -0.2622 0.7045 0.6595
vn -0.3336 0.5335 0.7772
vn 0.0016 0.9420 0.3357
vn -0.2271 0.9470 0.2271
vn -0.0482 0.9977 0.0482
vn -0.3357 0.9420 -0.0016
vn -0.7280 0.6855 -0.0059
vn -0.6595 0.7045 0.2622
vn -0.7772 0.5335 0.3337
vn -0.0288 -0.9993 -0.0258
vn -0.5228 -0.8512 -0.0474
vn -0.5222 -0.6742 -0.5222
vn -0.0471 -0.8660 -0.4978
vn -0.9981 -0.0337 -0.0515
vn -0.9184 0.0908 -0.3852
vn -0.7639 0.5454 -0.3451
vn -0.3451 0.5454 -0.7639
vn -0.3852 0.0908 -0.9184
vn -0.0533 -0.0606 -0.9967
vn -0.1139 0.9502 -0.2899
vn -0.2271 0.9470 -0.2271
vn -0.3357 0.9420 0.0016
vn -0.0933 0.7161 -0.6918
vn -0.2622 0.7045 -0.6595
vn -0.3336 0.5335 -0.7772
vn -0.7772 0.5335 -0.3336
vn -0.6595 0.7045 -0.2622
vn -0.7280 0.6855 0.0059
vn 0.0257 -0.9993 0.0288
vn 0.4695 -0.8817 0.0468
vn 0.5222 -0.6742 0.5222
vn 0.0474 -0.8512 0.5228
vn 0.9852 -0.1621 0.0552
vn 0.9184 0.0908 0.3852
vn 0.7639 0.5454 0.3451
vn 0.3451 0.5454 0.7639
vn 0.3852 0.0908 0.9184
vn 0.0515 -0.0337 0.9981
vn -0.0016 0.9420 0.3357
vn 0.2271 0.9470 0.2271
vn 0.3074 0.9485 0.0771
vn -0.0059 0.6855 0.7280
vn 0.2622 0.7045 0.6595
vn 0.3336 0.5335 0.7772
vn 0.7772 0.5335 0.3336
vn 0.6595 0.7045 0.2622
vn 0.6705 0.7418 0.0122
vn 0.0868 -0.9962 0.0000
vn 0.0139 -0.9998 -0.0142
vn 0.2550 -0.8938 -0.3690
vn -0.0004 -0.6419 -0.7668
vn 0.0019 0.5158 -0.8567
vn 0.1380 0.9824 -0.1257
vn -0.0168 0.8559 -0.5169
vn 0.6484 -0.7613 0.0013
vn 0.9625 0.2714 0.0022
vn 0.0000 -0.9962 -0.0868
usemtl Material.001
s off
f 81/1/1 72/2/1 65/3/1 79/4/1
s 1
f 53/5/2 64/6/3 15/7/4 4/8/5
f 76/9/6 79/10/7 65/11/8 52/12/9
f 79/4/10 76/13/10 1/14/10 2/15/10
f 80/16/11 39/17/12 16/18/13 63/19/14
f 5/20/15 17/21/16 41/22/17 28/23/18
f 29/24/19 40/25/20 79/26/21 76/27/22
f 3/28/23 6/29/24 8/30/25 7/31/26
f 6/32/24 10/33/27 11/34/28 8/35/25
f 4/8/5 9/36/29 11/37/28 10/38/27
f 9/36/29 13/39/30 14/40/31 11/37/28
f 5/20/15 12/41/32 14/42/31 13/43/30
f 12/41/32 7/44/26 8/45/25 14/42/31
f 8/46/25 11/47/28 14/40/31
f 15/7/4 18/48/33 20/49/34 19/50/35
f 18/48/33 22/51/36 23/52/37 20/49/34
f 16/18/38 21/53/39 23/54/37 22/55/36
f 21/53/39 25/56/40 26/57/41 23/54/37
f 17/21/16 24/58/42 26/59/41 25/60/40
f 24/58/42 19/61/35 20/62/34 26/59/41
f 20/49/34 23/54/37 26/59/41
f 27/63/43 30/64/44 32/65/45 31/66/46
f 30/67/44 34/68/47 35/69/48 32/70/45
f 28/23/18 33/71/49 35/72/48 34/73/47
f 33/71/49 37/74/50 38/75/51 35/72/48
f 29/24/19 36/76/52 38/77/51 37/78/50
f 36/76/52 31/79/46 32/80/45 38/77/51
f 32/81/45 35/82/48 38/75/51
f 39/17/12 42/83/53 44/84/54 43/85/55
f 42/83/53 46/86/56 47/87/57 44/84/54
f 40/25/20 45/88/58 47/89/57 46/90/56
f 45/88/58 49/91/59 50/92/60 47/89/57
f 41/22/17 48/93/61 50/94/60 49/95/59
f 48/93/61 43/96/55 44/97/54 50/94/60
f 44/84/54 47/89/57 50/94/60
f 51/98/62 54/99/63 56/100/64 55/101/65
f 54/102/63 58/103/66 59/104/67 56/105/64
f 52/12/9 57/106/68 59/107/67 58/108/66
f 57/106/68 61/109/69 62/110/70 59/107/67
f 53/5/2 60/111/71 62/112/70 61/113/69
f 60/111/71 55/114/65 56/115/64 62/112/70
f 56/116/64 59/117/67 62/110/70
f 63/19/14 66/118/72 68/119/73 67/120/74
f 66/118/72 70/121/75 71/122/76 68/119/73
f 64/6/3 69/123/77 71/124/76 70/125/75
f 69/123/77 73/126/78 74/127/79 71/124/76
f 65/11/8 72/128/80 74/129/79 73/130/78
f 72/128/80 67/131/74 68/132/73 74/129/79
f 68/119/73 71/124/76 74/129/79
f 27/63/43 3/28/23 7/31/26 30/64/44
f 30/133/44 7/44/26 12/41/32 34/73/47
f 34/73/47 12/41/32 5/20/15 28/23/18
f 4/8/5 15/7/4 19/50/35 9/36/29
f 9/36/29 19/50/35 24/58/42 13/43/30
f 13/43/30 24/58/42 17/21/16 5/20/15
f 16/18/81 39/17/81 43/85/81 21/53/81
f 21/53/39 43/85/55 48/93/61 25/60/40
f 25/60/40 48/93/61 41/22/17 17/21/16
f 40/25/20 29/24/19 37/78/50 45/88/58
f 45/88/58 37/78/50 33/71/49 49/95/59
f 49/95/59 33/71/49 28/23/18 41/22/17
f 75/134/82 27/63/43 31/66/46 77/135/83
f 77/136/83 31/79/46 36/76/52 78/137/84
f 78/137/85 36/76/52 29/24/19 76/27/22
f 39/17/12 80/16/11 82/138/86 42/83/53
f 42/83/53 82/138/86 81/139/87 46/90/56
f 46/90/56 81/139/87 79/26/21 40/25/20
f 51/98/62 75/134/82 77/135/83 54/99/63
f 54/140/63 77/141/83 78/142/88 58/108/66
f 58/108/66 78/142/89 76/9/6 52/12/9
f 80/16/11 63/19/14 67/120/74 82/138/86
f 82/138/86 67/120/74 72/143/80 81/144/87
f 64/6/3 53/5/2 61/113/69 69/123/77
f 69/123/77 61/113/69 57/106/68 73/130/78
f 73/130/78 57/106/68 52/12/9 65/11/8
f 3/28/23 51/98/62 55/101/65 6/29/24
f 6/145/24 55/114/65 60/111/71 10/38/27
f 10/38/27 60/111/71 53/5/2 4/8/5
f 63/19/90 16/18/90 22/55/90 66/118/90
f 66/118/72 22/55/36 18/48/33 70/125/75
f 70/125/75 18/48/33 15/7/4 64/6/3
f 27/63/43 75/134/82 51/98/62 3/28/23
