# Blender v2.92.0 OBJ File: 'Tirangle.blend'
# www.blender.org
mtllib triangle.mtl
o Cube_Cube.001
v -0.195157 -0.360730 0.122248
v -0.000221 0.029296 0.122248
v -0.195156 -0.360730 -0.107723
v -0.000221 0.029296 -0.107723
v 0.194869 -0.360730 0.122248
v 0.194869 -0.360730 -0.107723
v -1.000000 -1.000000 0.122248
v -0.000399 1.000000 0.122248
v -0.000399 1.000000 -0.107723
v -1.000000 -1.000000 -0.107723
v 1.000000 -1.000000 -0.107723
v 1.000000 -1.000000 0.122248
v -0.807675 -0.881115 0.122248
v -0.000357 0.734165 0.122248
v -0.000357 0.734165 -0.107723
v -0.807675 -0.881115 -0.107723
v 0.807606 -0.881115 -0.107723
v 0.807606 -0.881115 0.122248
v -1.000000 -1.000000 0.122248
v -0.000399 1.000000 0.122248
v 1.000000 -1.000000 0.122248
v -0.807675 -0.881115 0.122248
v -0.000357 0.734165 0.122248
v 0.807606 -0.881115 0.122248
v -1.000000 -1.000000 0.177706
v -0.000399 1.000000 0.177706
v 1.000000 -1.000000 0.177706
v -0.807675 -0.881115 0.177706
v -0.000357 0.734165 0.177706
v 0.807606 -0.881115 0.177706
v -0.195157 -0.360730 0.174231
v -0.000221 0.029296 0.174231
v 0.194869 -0.360730 0.174231
v -0.000399 1.000000 -0.164254
v -1.000000 -1.000000 -0.164254
v 1.000000 -1.000000 -0.164254
v -0.000357 0.734165 -0.164254
v -0.807675 -0.881115 -0.164254
v 0.807606 -0.881115 -0.164254
v -0.000221 0.029296 -0.159968
v -0.195156 -0.360730 -0.159968
v 0.194869 -0.360730 -0.159968
vt 0.009441 0.346084
vt 0.977280 0.344028
vt 0.977491 0.443574
vt 0.009653 0.445630
vt 0.866079 0.630881
vt 0.866079 0.527928
vt 0.878413 0.527928
vt 0.878413 0.630881
vt 0.013119 0.653796
vt 0.981109 0.650741
vt 0.981424 0.750287
vt 0.013434 0.753342
vt 0.878351 0.836771
vt 0.878351 0.928847
vt 0.866079 0.928847
vt 0.866079 0.836771
vt 0.086715 0.502507
vt 0.929796 0.500917
vt 0.929979 0.597860
vt 0.086898 0.599449
vt 0.472156 0.472156
vt 0.472156 0.472156
vt 0.472156 0.472156
vt 0.472156 0.472156
vt 0.272232 0.578472
vt 0.800070 0.575833
vt 0.800136 0.589179
vt 0.272299 0.591818
vt 0.852987 0.527928
vt 0.852987 0.783754
vt 0.839641 0.783754
vt 0.839641 0.527928
vt 0.472156 0.472156
vt 0.472156 0.472156
vt 0.472156 0.472156
vt 0.472156 0.472156
vt 0.472156 0.472156
vt 0.472156 0.472156
vt 0.813203 0.698520
vt 0.813203 0.527928
vt 0.826548 0.527928
vt 0.826548 0.698520
vt 0.453010 0.473811
vt 0.499112 0.565846
vt 0.499228 0.732250
vt 0.308299 0.351088
vt 0.504783 0.562642
vt 0.617625 0.337057
vt 0.972057 0.036143
vt 0.504725 0.970397
vt 0.392003 0.336982
vt 0.037647 0.035830
vt 0.545087 0.473729
vt 0.689631 0.350749
vt 0.839641 0.698520
vt 0.839641 0.954305
vt 0.826548 0.954305
vt 0.826548 0.698520
vt 0.839641 0.527928
vt 0.826548 0.527928
vt 0.743754 0.472432
vt 0.215979 0.480941
vt 0.215768 0.467851
vt 0.743543 0.459341
vt 0.472156 0.472156
vt 0.472156 0.472156
vt 0.136697 0.144054
vt 0.501160 0.857114
vt 0.502204 0.974998
vt 0.050936 0.092104
vt 0.852987 0.137593
vt 0.937828 0.084104
vt 0.215979 0.480941
vt 0.744050 0.485521
vt 0.216190 0.494032
vt 0.852987 0.783754
vt 0.852987 0.527928
vt 0.866079 0.527928
vt 0.866079 0.783754
vt 0.215557 0.454760
vt 0.687651 0.447148
vt 0.687862 0.460239
vt 0.257366 0.905948
vt 0.257366 0.019415
vt 0.966480 0.551251
vt 0.878351 0.733818
vt 0.878351 0.836771
vt 0.866079 0.836771
vt 0.866079 0.733818
vt 0.852987 0.886691
vt 0.852987 0.783754
vt 0.865259 0.783754
vt 0.865259 0.886691
vt 0.498972 0.839871
vt 0.861772 0.106327
vt 0.948705 0.052086
vt 0.499495 0.960343
vt 0.129757 0.109388
vt 0.042343 0.055876
vt 0.813203 0.954305
vt 0.826548 0.954305
vt 0.800287 0.602524
vt 0.272366 0.605164
vt 0.272299 0.591818
vt 0.800221 0.589178
vt 0.912713 0.488792
vt 0.440564 0.491153
vt 0.440497 0.477808
vt 0.912647 0.475447
vt 0.818018 0.193164
vt 0.421737 0.986041
vt 0.025141 0.193164
vt 0.840653 0.875831
vt 0.840653 0.783754
vt 0.852987 0.783754
vt 0.852987 0.875831
vt 0.878413 0.630881
vt 0.878413 0.733818
vt 0.866079 0.733818
vt 0.866079 0.630881
vn -0.8945 0.4471 0.0000
vn 0.8944 0.4474 0.0000
vn 0.0000 -1.0000 0.0000
vn 0.0000 0.0000 1.0000
vn -0.8944 -0.4474 0.0000
vn 0.0000 1.0000 0.0000
vn 0.0000 0.0000 -1.0000
vn 0.8945 -0.4471 0.0000
usemtl None
s off
f 7/1/1 8/2/1 9/3/1 10/4/1
f 4/5/2 6/6/2 42/7/2 40/8/2
f 11/9/2 9/10/2 8/11/2 12/12/2
f 1/13/3 5/14/3 33/15/3 31/16/3
f 10/17/3 11/18/3 12/19/3 7/20/3
f 14/21/4 18/22/4 24/23/4 23/24/4
f 10/25/1 9/26/1 34/27/1 35/28/1
f 17/29/5 15/30/5 37/31/5 39/32/5
f 7/33/4 12/34/4 21/35/4 19/36/4
f 13/37/4 14/21/4 23/24/4 22/38/4
f 16/39/6 17/40/6 39/41/6 38/42/6
f 1/43/4 2/44/4 14/45/4 13/46/4
f 4/47/7 3/48/7 16/49/7 15/50/7
f 3/48/7 6/51/7 17/52/7 16/49/7
f 2/44/4 5/53/4 18/54/4 14/45/4
f 5/53/4 1/43/4 13/46/4 18/54/4
f 6/51/7 4/47/7 15/50/7 17/52/7
f 22/55/8 23/56/8 29/57/8 28/58/8
f 24/59/6 22/55/6 28/58/6 30/60/6
f 20/61/1 19/62/1 25/63/1 26/64/1
f 8/65/4 7/33/4 19/36/4 20/66/4
f 12/34/4 8/65/4 20/66/4 21/35/4
f 18/22/4 13/37/4 22/38/4 24/23/4
f 28/67/4 29/68/4 26/69/4 25/70/4
f 29/68/4 30/71/4 27/72/4 26/69/4
f 30/71/4 28/67/4 25/70/4 27/72/4
f 21/73/2 20/61/2 26/74/2 27/75/2
f 23/76/5 24/77/5 30/78/5 29/79/5
f 19/80/3 21/81/3 27/82/3 25/63/3
f 33/83/4 32/84/4 31/85/4
f 5/86/2 2/87/2 32/88/2 33/89/2
f 2/90/1 1/91/1 31/92/1 32/93/1
f 37/94/7 38/95/7 35/96/7 34/97/7
f 38/95/7 39/98/7 36/99/7 35/96/7
f 39/98/7 37/94/7 34/97/7 36/99/7
f 15/100/8 16/39/8 38/42/8 37/101/8
f 9/102/2 11/103/2 36/104/2 34/105/2
f 11/106/3 10/107/3 35/108/3 36/109/3
f 41/110/7 40/111/7 42/112/7
f 6/113/3 3/114/3 41/115/3 42/116/3
f 3/117/1 4/118/1 40/119/1 41/120/1
